<mxfile host="app.diagrams.net" modified="2023-12-03T20:18:59.227Z" agent="Mozilla/5.0 (Windows NT 10.0; Win64; x64) AppleWebKit/537.36 (KHTML, like Gecko) Chrome/119.0.0.0 Safari/537.36" etag="92_xo58TKr1LoLH76iv3" version="22.1.5" type="device">
  <diagram name="Halaman-1" id="DqpaAFHzgwDqMasoshuX">
    <mxGraphModel dx="2647" dy="1643" grid="1" gridSize="10" guides="1" tooltips="1" connect="1" arrows="1" fold="1" page="1" pageScale="1" pageWidth="827" pageHeight="1169" math="0" shadow="0">
      <root>
        <mxCell id="0" />
        <mxCell id="1" parent="0" />
        <mxCell id="L7xQ6cJun4SARCbxEslF-5" style="edgeStyle=orthogonalEdgeStyle;rounded=0;orthogonalLoop=1;jettySize=auto;html=1;" edge="1" parent="1" source="L7xQ6cJun4SARCbxEslF-1" target="L7xQ6cJun4SARCbxEslF-3">
          <mxGeometry relative="1" as="geometry" />
        </mxCell>
        <mxCell id="L7xQ6cJun4SARCbxEslF-1" value="&lt;span id=&quot;docs-internal-guid-fd0bde93-7fff-bd7e-c00b-248746a1156b&quot;&gt;&lt;span style=&quot;font-size: 11pt; font-family: Arial, sans-serif; background-color: transparent; font-variant-numeric: normal; font-variant-east-asian: normal; font-variant-alternates: normal; font-variant-position: normal; vertical-align: baseline; white-space-collapse: preserve;&quot;&gt;masuk web&lt;/span&gt;&lt;/span&gt;" style="strokeWidth=2;html=1;shape=mxgraph.flowchart.start_1;whiteSpace=wrap;" vertex="1" parent="1">
          <mxGeometry x="140" y="130" width="100" height="60" as="geometry" />
        </mxCell>
        <mxCell id="L7xQ6cJun4SARCbxEslF-2" value="&lt;b&gt;&lt;font style=&quot;font-size: 30px;&quot;&gt;PEMBELI&lt;/font&gt;&lt;/b&gt;" style="text;html=1;strokeColor=none;fillColor=none;align=center;verticalAlign=middle;whiteSpace=wrap;rounded=0;" vertex="1" parent="1">
          <mxGeometry x="344" y="50" width="140" height="40" as="geometry" />
        </mxCell>
        <mxCell id="L7xQ6cJun4SARCbxEslF-6" style="edgeStyle=orthogonalEdgeStyle;rounded=0;orthogonalLoop=1;jettySize=auto;html=1;" edge="1" parent="1" source="L7xQ6cJun4SARCbxEslF-3" target="L7xQ6cJun4SARCbxEslF-4">
          <mxGeometry relative="1" as="geometry" />
        </mxCell>
        <mxCell id="L7xQ6cJun4SARCbxEslF-3" value="&lt;span id=&quot;docs-internal-guid-2552f60d-7fff-feec-e74c-0be7a882724b&quot;&gt;&lt;span style=&quot;font-size: 11pt; font-family: Arial, sans-serif; background-color: transparent; font-variant-numeric: normal; font-variant-east-asian: normal; font-variant-alternates: normal; font-variant-position: normal; vertical-align: baseline; white-space-collapse: preserve;&quot;&gt;pesan selamat datang&lt;/span&gt;&lt;/span&gt;" style="rounded=1;whiteSpace=wrap;html=1;" vertex="1" parent="1">
          <mxGeometry x="130" y="240" width="120" height="60" as="geometry" />
        </mxCell>
        <mxCell id="L7xQ6cJun4SARCbxEslF-22" style="edgeStyle=orthogonalEdgeStyle;rounded=0;orthogonalLoop=1;jettySize=auto;html=1;entryX=0.5;entryY=0.121;entryDx=0;entryDy=0;entryPerimeter=0;" edge="1" parent="1" source="L7xQ6cJun4SARCbxEslF-4" target="L7xQ6cJun4SARCbxEslF-21">
          <mxGeometry relative="1" as="geometry" />
        </mxCell>
        <mxCell id="L7xQ6cJun4SARCbxEslF-4" value="&lt;span id=&quot;docs-internal-guid-e89d09fa-7fff-6f6c-1c83-9cd56b035bd3&quot;&gt;&lt;span style=&quot;font-size: 11pt; font-family: Arial, sans-serif; background-color: transparent; font-variant-numeric: normal; font-variant-east-asian: normal; font-variant-alternates: normal; font-variant-position: normal; vertical-align: baseline; white-space-collapse: preserve;&quot;&gt;Tampilkan item atau promosi unggulan&lt;/span&gt;&lt;/span&gt;" style="rounded=1;whiteSpace=wrap;html=1;" vertex="1" parent="1">
          <mxGeometry x="130" y="350" width="120" height="60" as="geometry" />
        </mxCell>
        <mxCell id="L7xQ6cJun4SARCbxEslF-14" style="edgeStyle=orthogonalEdgeStyle;rounded=0;orthogonalLoop=1;jettySize=auto;html=1;" edge="1" parent="1" source="L7xQ6cJun4SARCbxEslF-9" target="L7xQ6cJun4SARCbxEslF-12">
          <mxGeometry relative="1" as="geometry">
            <Array as="points">
              <mxPoint x="80" y="620" />
            </Array>
          </mxGeometry>
        </mxCell>
        <mxCell id="L7xQ6cJun4SARCbxEslF-18" style="edgeStyle=orthogonalEdgeStyle;rounded=0;orthogonalLoop=1;jettySize=auto;html=1;entryX=0.5;entryY=0;entryDx=0;entryDy=0;" edge="1" parent="1" source="L7xQ6cJun4SARCbxEslF-9" target="L7xQ6cJun4SARCbxEslF-15">
          <mxGeometry relative="1" as="geometry" />
        </mxCell>
        <mxCell id="L7xQ6cJun4SARCbxEslF-9" value="&lt;span id=&quot;docs-internal-guid-d318dbd3-7fff-9e5e-c7e8-95bd07626a2c&quot;&gt;&lt;span style=&quot;font-size: 11pt; font-family: Arial, sans-serif; background-color: transparent; font-variant-numeric: normal; font-variant-east-asian: normal; font-variant-alternates: normal; font-variant-position: normal; vertical-align: baseline; white-space-collapse: preserve;&quot;&gt;If makan ditempat&lt;/span&gt;&lt;/span&gt;" style="rhombus;whiteSpace=wrap;html=1;" vertex="1" parent="1">
          <mxGeometry x="132.5" y="570" width="115" height="100" as="geometry" />
        </mxCell>
        <mxCell id="L7xQ6cJun4SARCbxEslF-17" style="edgeStyle=orthogonalEdgeStyle;rounded=0;orthogonalLoop=1;jettySize=auto;html=1;" edge="1" parent="1" source="L7xQ6cJun4SARCbxEslF-12">
          <mxGeometry relative="1" as="geometry">
            <mxPoint x="190" y="790" as="targetPoint" />
            <Array as="points">
              <mxPoint x="191" y="700" />
              <mxPoint x="191" y="790" />
            </Array>
          </mxGeometry>
        </mxCell>
        <mxCell id="L7xQ6cJun4SARCbxEslF-12" value="&lt;span style=&quot;font-family: Arial, sans-serif; font-size: 14.6667px; white-space-collapse: preserve;&quot;&gt;Masukkan noMeja&lt;/span&gt;" style="shape=parallelogram;perimeter=parallelogramPerimeter;whiteSpace=wrap;html=1;fixedSize=1;" vertex="1" parent="1">
          <mxGeometry x="20" y="670" width="120" height="60" as="geometry" />
        </mxCell>
        <mxCell id="L7xQ6cJun4SARCbxEslF-26" style="edgeStyle=orthogonalEdgeStyle;rounded=0;orthogonalLoop=1;jettySize=auto;html=1;entryX=0;entryY=0.5;entryDx=0;entryDy=0;" edge="1" parent="1" target="L7xQ6cJun4SARCbxEslF-25">
          <mxGeometry relative="1" as="geometry">
            <mxPoint x="230" y="809.9999999999998" as="sourcePoint" />
            <Array as="points">
              <mxPoint x="350" y="810" />
              <mxPoint x="350" y="160" />
            </Array>
          </mxGeometry>
        </mxCell>
        <mxCell id="L7xQ6cJun4SARCbxEslF-15" value="&lt;span id=&quot;docs-internal-guid-b3a86da7-7fff-6f84-ff0d-6254dc525a80&quot;&gt;&lt;span style=&quot;font-size: 11pt; font-family: Arial, sans-serif; background-color: transparent; font-variant-numeric: normal; font-variant-east-asian: normal; font-variant-alternates: normal; font-variant-position: normal; vertical-align: baseline; white-space-collapse: preserve;&quot;&gt;Klik “Buat Pesanan”&lt;/span&gt;&lt;/span&gt;" style="rounded=0;whiteSpace=wrap;html=1;" vertex="1" parent="1">
          <mxGeometry x="120" y="780" width="140" height="60" as="geometry" />
        </mxCell>
        <mxCell id="L7xQ6cJun4SARCbxEslF-23" style="edgeStyle=orthogonalEdgeStyle;rounded=0;orthogonalLoop=1;jettySize=auto;html=1;exitX=0.5;exitY=1;exitDx=0;exitDy=0;" edge="1" parent="1" source="L7xQ6cJun4SARCbxEslF-21" target="L7xQ6cJun4SARCbxEslF-9">
          <mxGeometry relative="1" as="geometry" />
        </mxCell>
        <mxCell id="L7xQ6cJun4SARCbxEslF-21" value="&lt;span style=&quot;border-color: var(--border-color);&quot; id=&quot;docs-internal-guid-b92371a4-7fff-b10c-172c-fe71f756e571&quot;&gt;&lt;span style=&quot;border-color: var(--border-color); font-size: 11pt; font-family: Arial, sans-serif; background-color: transparent; font-variant-numeric: normal; font-variant-east-asian: normal; font-variant-alternates: normal; font-variant-position: normal; vertical-align: baseline; white-space-collapse: preserve;&quot;&gt;Masukkan nama &amp;amp; &lt;/span&gt;&lt;/span&gt;&lt;span style=&quot;border-color: var(--border-color); white-space-collapse: preserve; font-family: Arial, sans-serif; font-size: 14.6667px;&quot;&gt;menentukan &lt;br/&gt;makan ditempat atau dibawa pulang&lt;/span&gt;" style="html=1;strokeWidth=2;shape=manualInput;whiteSpace=wrap;rounded=1;size=26;arcSize=11;" vertex="1" parent="1">
          <mxGeometry x="66.87" y="450" width="246.25" height="90" as="geometry" />
        </mxCell>
        <mxCell id="L7xQ6cJun4SARCbxEslF-28" style="edgeStyle=orthogonalEdgeStyle;rounded=0;orthogonalLoop=1;jettySize=auto;html=1;entryX=0.5;entryY=0;entryDx=0;entryDy=0;" edge="1" parent="1" source="L7xQ6cJun4SARCbxEslF-25" target="L7xQ6cJun4SARCbxEslF-27">
          <mxGeometry relative="1" as="geometry" />
        </mxCell>
        <mxCell id="L7xQ6cJun4SARCbxEslF-25" value="Masuk Halaman Utama" style="rounded=1;whiteSpace=wrap;html=1;absoluteArcSize=1;arcSize=14;strokeWidth=2;" vertex="1" parent="1">
          <mxGeometry x="424" y="130" width="146" height="60" as="geometry" />
        </mxCell>
        <mxCell id="L7xQ6cJun4SARCbxEslF-30" style="edgeStyle=orthogonalEdgeStyle;rounded=0;orthogonalLoop=1;jettySize=auto;html=1;" edge="1" parent="1" source="L7xQ6cJun4SARCbxEslF-27" target="L7xQ6cJun4SARCbxEslF-29">
          <mxGeometry relative="1" as="geometry" />
        </mxCell>
        <mxCell id="L7xQ6cJun4SARCbxEslF-27" value="&lt;span id=&quot;docs-internal-guid-e89d09fa-7fff-6f6c-1c83-9cd56b035bd3&quot;&gt;&lt;span style=&quot;font-size: 11pt; font-family: Arial, sans-serif; background-color: transparent; font-variant-numeric: normal; font-variant-east-asian: normal; font-variant-alternates: normal; font-variant-position: normal; vertical-align: baseline; white-space-collapse: preserve;&quot;&gt;Tampilkan item atau promosi unggulan&lt;/span&gt;&lt;/span&gt;" style="rounded=1;whiteSpace=wrap;html=1;" vertex="1" parent="1">
          <mxGeometry x="437" y="240" width="120" height="60" as="geometry" />
        </mxCell>
        <mxCell id="L7xQ6cJun4SARCbxEslF-32" style="edgeStyle=orthogonalEdgeStyle;rounded=0;orthogonalLoop=1;jettySize=auto;html=1;entryX=0.497;entryY=0.109;entryDx=0;entryDy=0;entryPerimeter=0;" edge="1" parent="1" source="L7xQ6cJun4SARCbxEslF-29" target="L7xQ6cJun4SARCbxEslF-31">
          <mxGeometry relative="1" as="geometry" />
        </mxCell>
        <mxCell id="L7xQ6cJun4SARCbxEslF-29" value="&lt;span id=&quot;docs-internal-guid-f8882639-7fff-b376-6508-1540f506315f&quot;&gt;&lt;span style=&quot;font-size: 11pt; font-family: Arial, sans-serif; background-color: transparent; font-variant-numeric: normal; font-variant-east-asian: normal; font-variant-alternates: normal; font-variant-position: normal; vertical-align: baseline; white-space-collapse: preserve;&quot;&gt;Tampilkan item menu-&lt;br/&gt;menu dan harganya&lt;/span&gt;&lt;/span&gt;" style="shape=parallelogram;html=1;strokeWidth=2;perimeter=parallelogramPerimeter;whiteSpace=wrap;rounded=1;arcSize=12;size=0.23;" vertex="1" parent="1">
          <mxGeometry x="382" y="340" width="230" height="60" as="geometry" />
        </mxCell>
        <mxCell id="L7xQ6cJun4SARCbxEslF-34" style="edgeStyle=orthogonalEdgeStyle;rounded=0;orthogonalLoop=1;jettySize=auto;html=1;entryX=0.5;entryY=0;entryDx=0;entryDy=0;" edge="1" parent="1" source="L7xQ6cJun4SARCbxEslF-31" target="L7xQ6cJun4SARCbxEslF-33">
          <mxGeometry relative="1" as="geometry" />
        </mxCell>
        <mxCell id="L7xQ6cJun4SARCbxEslF-31" value="&lt;span id=&quot;docs-internal-guid-f0474fdc-7fff-02ca-a5f1-ac2e6e587ab1&quot;&gt;&lt;span style=&quot;font-size: 11pt; font-family: Arial, sans-serif; background-color: transparent; font-variant-numeric: normal; font-variant-east-asian: normal; font-variant-alternates: normal; font-variant-position: normal; vertical-align: baseline; white-space-collapse: preserve;&quot;&gt;Pembeli memilih makanan &lt;br/&gt;dan jumlah makanan&lt;/span&gt;&lt;/span&gt;" style="html=1;strokeWidth=2;shape=manualInput;whiteSpace=wrap;rounded=1;size=26;arcSize=11;" vertex="1" parent="1">
          <mxGeometry x="392" y="440" width="210" height="80" as="geometry" />
        </mxCell>
        <mxCell id="L7xQ6cJun4SARCbxEslF-33" value="&lt;span id=&quot;docs-internal-guid-8a1de93e-7fff-22fb-9cc7-be79c5dbcf62&quot;&gt;&lt;span style=&quot;font-size: 11pt; font-family: Arial, sans-serif; background-color: transparent; font-variant-numeric: normal; font-variant-east-asian: normal; font-variant-alternates: normal; font-variant-position: normal; vertical-align: baseline; white-space-collapse: preserve;&quot;&gt;Tampilkan ringkasan &lt;br/&gt;pesanan terakhir&lt;/span&gt;&lt;/span&gt;" style="shape=parallelogram;html=1;strokeWidth=2;perimeter=parallelogramPerimeter;whiteSpace=wrap;rounded=1;arcSize=12;size=0.23;" vertex="1" parent="1">
          <mxGeometry x="397" y="560" width="200" height="60" as="geometry" />
        </mxCell>
        <mxCell id="L7xQ6cJun4SARCbxEslF-36" style="edgeStyle=orthogonalEdgeStyle;rounded=0;orthogonalLoop=1;jettySize=auto;html=1;exitX=0;exitY=0.5;exitDx=0;exitDy=0;exitPerimeter=0;" edge="1" parent="1" target="L7xQ6cJun4SARCbxEslF-33">
          <mxGeometry relative="1" as="geometry">
            <mxPoint x="447.0000000000002" y="700" as="sourcePoint" />
            <Array as="points">
              <mxPoint x="380" y="700" />
              <mxPoint x="380" y="590" />
            </Array>
          </mxGeometry>
        </mxCell>
        <mxCell id="L7xQ6cJun4SARCbxEslF-39" style="edgeStyle=orthogonalEdgeStyle;rounded=0;orthogonalLoop=1;jettySize=auto;html=1;entryX=0;entryY=0.5;entryDx=0;entryDy=0;" edge="1" parent="1" target="L7xQ6cJun4SARCbxEslF-38">
          <mxGeometry relative="1" as="geometry">
            <mxPoint x="530.0000000000002" y="700" as="sourcePoint" />
            <mxPoint x="642.9999999999998" y="160" as="targetPoint" />
            <Array as="points">
              <mxPoint x="500" y="700" />
              <mxPoint x="500" y="810" />
              <mxPoint x="630" y="810" />
              <mxPoint x="630" y="160" />
            </Array>
          </mxGeometry>
        </mxCell>
        <mxCell id="L7xQ6cJun4SARCbxEslF-35" value="Konfimasi Pesanan" style="strokeWidth=2;html=1;shape=mxgraph.flowchart.decision;whiteSpace=wrap;" vertex="1" parent="1">
          <mxGeometry x="447" y="650" width="100" height="100" as="geometry" />
        </mxCell>
        <mxCell id="L7xQ6cJun4SARCbxEslF-37" style="edgeStyle=orthogonalEdgeStyle;rounded=0;orthogonalLoop=1;jettySize=auto;html=1;entryX=0.5;entryY=0;entryDx=0;entryDy=0;entryPerimeter=0;" edge="1" parent="1" source="L7xQ6cJun4SARCbxEslF-33">
          <mxGeometry relative="1" as="geometry">
            <mxPoint x="497.0000000000002" y="650" as="targetPoint" />
          </mxGeometry>
        </mxCell>
        <mxCell id="L7xQ6cJun4SARCbxEslF-44" style="edgeStyle=orthogonalEdgeStyle;rounded=0;orthogonalLoop=1;jettySize=auto;html=1;entryX=0.494;entryY=0.132;entryDx=0;entryDy=0;entryPerimeter=0;" edge="1" parent="1" source="L7xQ6cJun4SARCbxEslF-38" target="L7xQ6cJun4SARCbxEslF-40">
          <mxGeometry relative="1" as="geometry" />
        </mxCell>
        <mxCell id="L7xQ6cJun4SARCbxEslF-38" value="&lt;span id=&quot;docs-internal-guid-5dbc87fd-7fff-cf52-2222-6c7166fe94c3&quot;&gt;&lt;span style=&quot;font-size: 11pt; font-family: Arial, sans-serif; background-color: transparent; font-variant-numeric: normal; font-variant-east-asian: normal; font-variant-alternates: normal; font-variant-position: normal; vertical-align: baseline; white-space-collapse: preserve;&quot;&gt;Tampilkan menu pembayaran&lt;/span&gt;&lt;/span&gt;" style="rounded=1;whiteSpace=wrap;html=1;absoluteArcSize=1;arcSize=14;strokeWidth=2;" vertex="1" parent="1">
          <mxGeometry x="660" y="130" width="130" height="60" as="geometry" />
        </mxCell>
        <mxCell id="L7xQ6cJun4SARCbxEslF-46" style="edgeStyle=orthogonalEdgeStyle;rounded=0;orthogonalLoop=1;jettySize=auto;html=1;entryX=0.5;entryY=0;entryDx=0;entryDy=0;" edge="1" parent="1" source="L7xQ6cJun4SARCbxEslF-40" target="L7xQ6cJun4SARCbxEslF-45">
          <mxGeometry relative="1" as="geometry" />
        </mxCell>
        <mxCell id="L7xQ6cJun4SARCbxEslF-40" value="&lt;span id=&quot;docs-internal-guid-5e8dfc69-7fff-3313-7f3a-4247c7362e14&quot;&gt;&lt;span style=&quot;font-size: 11pt; font-family: Arial, sans-serif; background-color: transparent; font-variant-numeric: normal; font-variant-east-asian: normal; font-variant-alternates: normal; font-variant-position: normal; vertical-align: baseline; white-space-collapse: preserve;&quot;&gt;Pilih metode pembayaran&lt;/span&gt;&lt;/span&gt;" style="html=1;strokeWidth=2;shape=manualInput;whiteSpace=wrap;rounded=1;size=26;arcSize=11;" vertex="1" parent="1">
          <mxGeometry x="660" y="230" width="130" height="80" as="geometry" />
        </mxCell>
        <mxCell id="L7xQ6cJun4SARCbxEslF-48" style="edgeStyle=orthogonalEdgeStyle;rounded=0;orthogonalLoop=1;jettySize=auto;html=1;entryX=0.5;entryY=0;entryDx=0;entryDy=0;" edge="1" parent="1" source="L7xQ6cJun4SARCbxEslF-45" target="L7xQ6cJun4SARCbxEslF-47">
          <mxGeometry relative="1" as="geometry" />
        </mxCell>
        <mxCell id="L7xQ6cJun4SARCbxEslF-45" value="&lt;span id=&quot;docs-internal-guid-c5600ee0-7fff-ed0c-9ded-1241dd7b07e4&quot;&gt;&lt;span style=&quot;font-size: 11pt; font-family: Arial, sans-serif; background-color: transparent; font-variant-numeric: normal; font-variant-east-asian: normal; font-variant-alternates: normal; font-variant-position: normal; vertical-align: baseline; white-space-collapse: preserve;&quot;&gt;Melakukan pembayaran&lt;/span&gt;&lt;/span&gt;" style="rounded=1;whiteSpace=wrap;html=1;absoluteArcSize=1;arcSize=14;strokeWidth=2;" vertex="1" parent="1">
          <mxGeometry x="675" y="350" width="100" height="60" as="geometry" />
        </mxCell>
        <mxCell id="L7xQ6cJun4SARCbxEslF-47" value="&lt;span id=&quot;docs-internal-guid-1eca611c-7fff-6d4d-430a-99cd8a6fa70b&quot;&gt;&lt;span style=&quot;font-size: 11pt; font-family: Arial, sans-serif; background-color: transparent; font-variant-numeric: normal; font-variant-east-asian: normal; font-variant-alternates: normal; font-variant-position: normal; vertical-align: baseline; white-space-collapse: preserve;&quot;&gt;Pembayaran berhasil&lt;/span&gt;&lt;/span&gt;" style="rounded=1;whiteSpace=wrap;html=1;absoluteArcSize=1;arcSize=14;strokeWidth=2;" vertex="1" parent="1">
          <mxGeometry x="675" y="450" width="100" height="60" as="geometry" />
        </mxCell>
        <mxCell id="L7xQ6cJun4SARCbxEslF-49" value="Selesai" style="strokeWidth=2;html=1;shape=mxgraph.flowchart.start_2;whiteSpace=wrap;" vertex="1" parent="1">
          <mxGeometry x="687.5" y="550" width="75" height="70" as="geometry" />
        </mxCell>
        <mxCell id="L7xQ6cJun4SARCbxEslF-50" style="edgeStyle=orthogonalEdgeStyle;rounded=0;orthogonalLoop=1;jettySize=auto;html=1;entryX=0.5;entryY=0;entryDx=0;entryDy=0;entryPerimeter=0;" edge="1" parent="1" source="L7xQ6cJun4SARCbxEslF-47" target="L7xQ6cJun4SARCbxEslF-49">
          <mxGeometry relative="1" as="geometry" />
        </mxCell>
        <mxCell id="L7xQ6cJun4SARCbxEslF-51" value="&lt;span id=&quot;docs-internal-guid-f5fb7e0e-7fff-c234-bfba-7c07ae8280fd&quot;&gt;&lt;span style=&quot;font-family: Arial, sans-serif; background-color: transparent; font-weight: 700; font-variant-numeric: normal; font-variant-east-asian: normal; font-variant-alternates: normal; font-variant-position: normal; vertical-align: baseline; white-space-collapse: preserve;&quot;&gt;&lt;font style=&quot;font-size: 30px;&quot;&gt;ADMIN / False (Karyawan)&lt;/font&gt;&lt;/span&gt;&lt;/span&gt;" style="text;html=1;strokeColor=none;fillColor=none;align=center;verticalAlign=middle;whiteSpace=wrap;rounded=0;" vertex="1" parent="1">
          <mxGeometry x="1051" y="50" width="379" height="40" as="geometry" />
        </mxCell>
        <mxCell id="L7xQ6cJun4SARCbxEslF-55" style="edgeStyle=orthogonalEdgeStyle;rounded=0;orthogonalLoop=1;jettySize=auto;html=1;entryX=0.497;entryY=0.112;entryDx=0;entryDy=0;entryPerimeter=0;" edge="1" parent="1" source="L7xQ6cJun4SARCbxEslF-52" target="L7xQ6cJun4SARCbxEslF-53">
          <mxGeometry relative="1" as="geometry" />
        </mxCell>
        <mxCell id="L7xQ6cJun4SARCbxEslF-52" value="&lt;span id=&quot;docs-internal-guid-2d7bb631-7fff-a223-0e39-cc595ae50e64&quot;&gt;&lt;span style=&quot;font-size: 11pt; font-family: Arial, sans-serif; background-color: transparent; font-variant-numeric: normal; font-variant-east-asian: normal; font-variant-alternates: normal; font-variant-position: normal; vertical-align: baseline; white-space-collapse: preserve;&quot;&gt;login ke web&lt;/span&gt;&lt;/span&gt;" style="strokeWidth=2;html=1;shape=mxgraph.flowchart.start_1;whiteSpace=wrap;" vertex="1" parent="1">
          <mxGeometry x="1178.25" y="110" width="100" height="60" as="geometry" />
        </mxCell>
        <mxCell id="L7xQ6cJun4SARCbxEslF-53" value="&lt;span id=&quot;docs-internal-guid-01315452-7fff-ecfb-a529-93ce4e84334f&quot;&gt;&lt;span style=&quot;font-size: 11pt; font-family: Arial, sans-serif; background-color: transparent; font-variant-numeric: normal; font-variant-east-asian: normal; font-variant-alternates: normal; font-variant-position: normal; vertical-align: baseline; white-space-collapse: preserve;&quot;&gt;Mengisi username dan password&lt;/span&gt;&lt;/span&gt;" style="html=1;strokeWidth=2;shape=manualInput;whiteSpace=wrap;rounded=1;size=26;arcSize=11;" vertex="1" parent="1">
          <mxGeometry x="1163.25" y="200" width="130" height="80" as="geometry" />
        </mxCell>
        <mxCell id="L7xQ6cJun4SARCbxEslF-58" style="edgeStyle=orthogonalEdgeStyle;rounded=0;orthogonalLoop=1;jettySize=auto;html=1;exitX=1;exitY=0.5;exitDx=0;exitDy=0;exitPerimeter=0;entryX=1;entryY=0.5;entryDx=0;entryDy=0;" edge="1" parent="1" source="L7xQ6cJun4SARCbxEslF-56" target="L7xQ6cJun4SARCbxEslF-53">
          <mxGeometry relative="1" as="geometry">
            <Array as="points">
              <mxPoint x="1318.25" y="350" />
              <mxPoint x="1318.25" y="240" />
            </Array>
          </mxGeometry>
        </mxCell>
        <mxCell id="L7xQ6cJun4SARCbxEslF-60" style="edgeStyle=orthogonalEdgeStyle;rounded=0;orthogonalLoop=1;jettySize=auto;html=1;entryX=0.5;entryY=0;entryDx=0;entryDy=0;exitX=0.5;exitY=1;exitDx=0;exitDy=0;exitPerimeter=0;" edge="1" parent="1" source="L7xQ6cJun4SARCbxEslF-56" target="L7xQ6cJun4SARCbxEslF-59">
          <mxGeometry relative="1" as="geometry">
            <Array as="points">
              <mxPoint x="1228" y="420" />
            </Array>
          </mxGeometry>
        </mxCell>
        <mxCell id="L7xQ6cJun4SARCbxEslF-56" value="If berhasil login" style="strokeWidth=2;html=1;shape=mxgraph.flowchart.decision;whiteSpace=wrap;" vertex="1" parent="1">
          <mxGeometry x="1188.25" y="310" width="80" height="80" as="geometry" />
        </mxCell>
        <mxCell id="L7xQ6cJun4SARCbxEslF-57" style="edgeStyle=orthogonalEdgeStyle;rounded=0;orthogonalLoop=1;jettySize=auto;html=1;entryX=0.5;entryY=0;entryDx=0;entryDy=0;entryPerimeter=0;" edge="1" parent="1" source="L7xQ6cJun4SARCbxEslF-53" target="L7xQ6cJun4SARCbxEslF-56">
          <mxGeometry relative="1" as="geometry" />
        </mxCell>
        <mxCell id="L7xQ6cJun4SARCbxEslF-62" style="edgeStyle=orthogonalEdgeStyle;rounded=0;orthogonalLoop=1;jettySize=auto;html=1;" edge="1" parent="1" source="L7xQ6cJun4SARCbxEslF-59" target="L7xQ6cJun4SARCbxEslF-61">
          <mxGeometry relative="1" as="geometry" />
        </mxCell>
        <mxCell id="L7xQ6cJun4SARCbxEslF-111" style="edgeStyle=orthogonalEdgeStyle;rounded=0;orthogonalLoop=1;jettySize=auto;html=1;entryX=0.5;entryY=0;entryDx=0;entryDy=0;" edge="1" parent="1" source="L7xQ6cJun4SARCbxEslF-59" target="L7xQ6cJun4SARCbxEslF-82">
          <mxGeometry relative="1" as="geometry" />
        </mxCell>
        <mxCell id="L7xQ6cJun4SARCbxEslF-59" value="&lt;span id=&quot;docs-internal-guid-68e7bf51-7fff-b6d4-9292-94a20189621b&quot;&gt;&lt;span style=&quot;font-size: 11pt; font-family: Arial, sans-serif; background-color: transparent; font-variant-numeric: normal; font-variant-east-asian: normal; font-variant-alternates: normal; font-variant-position: normal; vertical-align: baseline; white-space-collapse: preserve;&quot;&gt;Tampilan halaman utama&lt;/span&gt;&lt;/span&gt;" style="rounded=1;whiteSpace=wrap;html=1;absoluteArcSize=1;arcSize=14;strokeWidth=2;" vertex="1" parent="1">
          <mxGeometry x="1163.25" y="420" width="130" height="40" as="geometry" />
        </mxCell>
        <mxCell id="L7xQ6cJun4SARCbxEslF-64" style="edgeStyle=orthogonalEdgeStyle;rounded=0;orthogonalLoop=1;jettySize=auto;html=1;entryX=0.5;entryY=0;entryDx=0;entryDy=0;" edge="1" parent="1" source="L7xQ6cJun4SARCbxEslF-61" target="L7xQ6cJun4SARCbxEslF-63">
          <mxGeometry relative="1" as="geometry" />
        </mxCell>
        <mxCell id="L7xQ6cJun4SARCbxEslF-61" value="&lt;span id=&quot;docs-internal-guid-55f7076e-7fff-222f-57bd-265248983d5c&quot;&gt;&lt;span style=&quot;font-size: 11pt; font-family: Arial, sans-serif; background-color: transparent; font-variant-numeric: normal; font-variant-east-asian: normal; font-variant-alternates: normal; font-variant-position: normal; vertical-align: baseline; white-space-collapse: preserve;&quot;&gt;Memilih ikon menu&lt;/span&gt;&lt;/span&gt;" style="rounded=1;whiteSpace=wrap;html=1;absoluteArcSize=1;arcSize=14;strokeWidth=2;" vertex="1" parent="1">
          <mxGeometry x="865" y="510" width="130" height="40" as="geometry" />
        </mxCell>
        <mxCell id="L7xQ6cJun4SARCbxEslF-63" value="&lt;span id=&quot;docs-internal-guid-f3b36a59-7fff-6cd2-c8ee-a0f223f3d943&quot;&gt;&lt;span style=&quot;font-size: 11pt; font-family: Arial, sans-serif; background-color: transparent; font-variant-numeric: normal; font-variant-east-asian: normal; font-variant-alternates: normal; font-variant-position: normal; vertical-align: baseline; white-space-collapse: preserve;&quot;&gt;Menampilkan &lt;br/&gt;item-item menu&lt;/span&gt;&lt;/span&gt;" style="shape=parallelogram;html=1;strokeWidth=2;perimeter=parallelogramPerimeter;whiteSpace=wrap;rounded=1;arcSize=12;size=0.23;" vertex="1" parent="1">
          <mxGeometry x="850" y="585" width="160" height="60" as="geometry" />
        </mxCell>
        <mxCell id="L7xQ6cJun4SARCbxEslF-69" style="edgeStyle=orthogonalEdgeStyle;rounded=0;orthogonalLoop=1;jettySize=auto;html=1;" edge="1" parent="1" source="L7xQ6cJun4SARCbxEslF-65" target="L7xQ6cJun4SARCbxEslF-67">
          <mxGeometry relative="1" as="geometry" />
        </mxCell>
        <mxCell id="L7xQ6cJun4SARCbxEslF-81" style="edgeStyle=orthogonalEdgeStyle;rounded=0;orthogonalLoop=1;jettySize=auto;html=1;entryX=1;entryY=0.5;entryDx=0;entryDy=0;" edge="1" parent="1" source="L7xQ6cJun4SARCbxEslF-65" target="L7xQ6cJun4SARCbxEslF-70">
          <mxGeometry relative="1" as="geometry">
            <Array as="points">
              <mxPoint x="1030" y="780" />
              <mxPoint x="1030" y="930" />
            </Array>
          </mxGeometry>
        </mxCell>
        <mxCell id="L7xQ6cJun4SARCbxEslF-65" value="Publikasi" style="strokeWidth=2;html=1;shape=mxgraph.flowchart.decision;whiteSpace=wrap;" vertex="1" parent="1">
          <mxGeometry x="890" y="740" width="80" height="80" as="geometry" />
        </mxCell>
        <mxCell id="L7xQ6cJun4SARCbxEslF-79" style="edgeStyle=orthogonalEdgeStyle;rounded=0;orthogonalLoop=1;jettySize=auto;html=1;entryX=0.5;entryY=0;entryDx=0;entryDy=0;" edge="1" parent="1" source="L7xQ6cJun4SARCbxEslF-67" target="L7xQ6cJun4SARCbxEslF-70">
          <mxGeometry relative="1" as="geometry" />
        </mxCell>
        <mxCell id="L7xQ6cJun4SARCbxEslF-67" value="Menu di Private" style="shape=parallelogram;html=1;strokeWidth=2;perimeter=parallelogramPerimeter;whiteSpace=wrap;rounded=1;arcSize=12;size=0.23;" vertex="1" parent="1">
          <mxGeometry x="865" y="840" width="130" height="40" as="geometry" />
        </mxCell>
        <mxCell id="L7xQ6cJun4SARCbxEslF-78" style="edgeStyle=orthogonalEdgeStyle;rounded=0;orthogonalLoop=1;jettySize=auto;html=1;" edge="1" parent="1" source="L7xQ6cJun4SARCbxEslF-70" target="L7xQ6cJun4SARCbxEslF-77">
          <mxGeometry relative="1" as="geometry">
            <Array as="points">
              <mxPoint x="930" y="990" />
              <mxPoint x="1241" y="990" />
            </Array>
          </mxGeometry>
        </mxCell>
        <mxCell id="L7xQ6cJun4SARCbxEslF-70" value="Tampil daftar menu" style="shape=parallelogram;html=1;strokeWidth=2;perimeter=parallelogramPerimeter;whiteSpace=wrap;rounded=1;arcSize=12;size=0.23;" vertex="1" parent="1">
          <mxGeometry x="850" y="900" width="160" height="60" as="geometry" />
        </mxCell>
        <mxCell id="L7xQ6cJun4SARCbxEslF-75" style="edgeStyle=orthogonalEdgeStyle;rounded=0;orthogonalLoop=1;jettySize=auto;html=1;" edge="1" parent="1" source="L7xQ6cJun4SARCbxEslF-73" target="L7xQ6cJun4SARCbxEslF-65">
          <mxGeometry relative="1" as="geometry" />
        </mxCell>
        <mxCell id="L7xQ6cJun4SARCbxEslF-73" value="Pilih Menu" style="html=1;strokeWidth=2;shape=manualInput;whiteSpace=wrap;rounded=1;size=26;arcSize=11;" vertex="1" parent="1">
          <mxGeometry x="880" y="660" width="100" height="60" as="geometry" />
        </mxCell>
        <mxCell id="L7xQ6cJun4SARCbxEslF-76" style="edgeStyle=orthogonalEdgeStyle;rounded=0;orthogonalLoop=1;jettySize=auto;html=1;entryX=0.497;entryY=0.157;entryDx=0;entryDy=0;entryPerimeter=0;" edge="1" parent="1" source="L7xQ6cJun4SARCbxEslF-63" target="L7xQ6cJun4SARCbxEslF-73">
          <mxGeometry relative="1" as="geometry" />
        </mxCell>
        <mxCell id="L7xQ6cJun4SARCbxEslF-77" value="Selesai" style="strokeWidth=2;html=1;shape=mxgraph.flowchart.start_2;whiteSpace=wrap;" vertex="1" parent="1">
          <mxGeometry x="1206" y="1020" width="69.5" height="70" as="geometry" />
        </mxCell>
        <mxCell id="L7xQ6cJun4SARCbxEslF-87" style="edgeStyle=orthogonalEdgeStyle;rounded=0;orthogonalLoop=1;jettySize=auto;html=1;entryX=0.5;entryY=0;entryDx=0;entryDy=0;" edge="1" parent="1" source="L7xQ6cJun4SARCbxEslF-82" target="L7xQ6cJun4SARCbxEslF-83">
          <mxGeometry relative="1" as="geometry" />
        </mxCell>
        <mxCell id="L7xQ6cJun4SARCbxEslF-82" value="&lt;span id=&quot;docs-internal-guid-979af450-7fff-b90f-9996-9b0619f820ae&quot;&gt;&lt;span style=&quot;font-size: 11pt; font-family: Arial, sans-serif; background-color: transparent; font-variant-numeric: normal; font-variant-east-asian: normal; font-variant-alternates: normal; font-variant-position: normal; vertical-align: baseline; white-space-collapse: preserve;&quot;&gt;Menampilkan daftar customer&lt;/span&gt;&lt;/span&gt;" style="rounded=1;whiteSpace=wrap;html=1;absoluteArcSize=1;arcSize=14;strokeWidth=2;" vertex="1" parent="1">
          <mxGeometry x="1153.25" y="500" width="150" height="40" as="geometry" />
        </mxCell>
        <mxCell id="L7xQ6cJun4SARCbxEslF-83" value="&lt;span id=&quot;docs-internal-guid-da751b2f-7fff-c4a6-5bb2-af352c554b89&quot;&gt;&lt;span style=&quot;font-size: 11pt; font-family: Arial, sans-serif; background-color: transparent; font-variant-numeric: normal; font-variant-east-asian: normal; font-variant-alternates: normal; font-variant-position: normal; vertical-align: baseline; white-space-collapse: preserve;&quot;&gt;mensortir berdasarkan waktu pesanan&lt;/span&gt;&lt;/span&gt;" style="rounded=1;whiteSpace=wrap;html=1;absoluteArcSize=1;arcSize=14;strokeWidth=2;" vertex="1" parent="1">
          <mxGeometry x="1158.25" y="580" width="140" height="50" as="geometry" />
        </mxCell>
        <mxCell id="L7xQ6cJun4SARCbxEslF-110" style="edgeStyle=orthogonalEdgeStyle;rounded=0;orthogonalLoop=1;jettySize=auto;html=1;entryX=0.5;entryY=0;entryDx=0;entryDy=0;" edge="1" parent="1" source="L7xQ6cJun4SARCbxEslF-85" target="L7xQ6cJun4SARCbxEslF-89">
          <mxGeometry relative="1" as="geometry">
            <Array as="points">
              <mxPoint x="1103" y="680" />
            </Array>
          </mxGeometry>
        </mxCell>
        <mxCell id="L7xQ6cJun4SARCbxEslF-85" value="&lt;span id=&quot;docs-internal-guid-22b08eab-7fff-3f7f-8ea7-3451491a9459&quot;&gt;&lt;span style=&quot;font-size: 11pt; font-family: Arial, sans-serif; background-color: transparent; font-variant-numeric: normal; font-variant-east-asian: normal; font-variant-alternates: normal; font-variant-position: normal; vertical-align: baseline; white-space-collapse: preserve;&quot;&gt;Cari &lt;br/&gt;berdasarkan nama&lt;/span&gt;&lt;/span&gt;" style="html=1;strokeWidth=2;shape=manualInput;whiteSpace=wrap;rounded=1;size=26;arcSize=11;" vertex="1" parent="1">
          <mxGeometry x="1158.25" y="650" width="140" height="60" as="geometry" />
        </mxCell>
        <mxCell id="L7xQ6cJun4SARCbxEslF-88" style="edgeStyle=orthogonalEdgeStyle;rounded=0;orthogonalLoop=1;jettySize=auto;html=1;exitX=0.5;exitY=1;exitDx=0;exitDy=0;entryX=0.495;entryY=0.228;entryDx=0;entryDy=0;entryPerimeter=0;" edge="1" parent="1" source="L7xQ6cJun4SARCbxEslF-83" target="L7xQ6cJun4SARCbxEslF-85">
          <mxGeometry relative="1" as="geometry" />
        </mxCell>
        <mxCell id="L7xQ6cJun4SARCbxEslF-103" style="edgeStyle=orthogonalEdgeStyle;rounded=0;orthogonalLoop=1;jettySize=auto;html=1;" edge="1" parent="1" source="L7xQ6cJun4SARCbxEslF-89" target="L7xQ6cJun4SARCbxEslF-97">
          <mxGeometry relative="1" as="geometry">
            <Array as="points">
              <mxPoint x="1170" y="790" />
              <mxPoint x="1170" y="880" />
            </Array>
          </mxGeometry>
        </mxCell>
        <mxCell id="L7xQ6cJun4SARCbxEslF-89" value="&lt;span id=&quot;docs-internal-guid-77a69765-7fff-0695-c9ac-84ef22bbf188&quot;&gt;&lt;span style=&quot;font-size: 11pt; font-family: Arial, sans-serif; background-color: transparent; font-variant-numeric: normal; font-variant-east-asian: normal; font-variant-alternates: normal; font-variant-position: normal; vertical-align: baseline; white-space-collapse: preserve;&quot;&gt;Pilih nama customer&lt;/span&gt;&lt;/span&gt;" style="shape=parallelogram;html=1;strokeWidth=2;perimeter=parallelogramPerimeter;whiteSpace=wrap;rounded=1;arcSize=12;size=0.23;" vertex="1" parent="1">
          <mxGeometry x="1038.25" y="760" width="130" height="60" as="geometry" />
        </mxCell>
        <mxCell id="L7xQ6cJun4SARCbxEslF-91" style="edgeStyle=orthogonalEdgeStyle;rounded=0;orthogonalLoop=1;jettySize=auto;html=1;" edge="1" parent="1" source="L7xQ6cJun4SARCbxEslF-89" target="L7xQ6cJun4SARCbxEslF-77">
          <mxGeometry relative="1" as="geometry">
            <mxPoint x="1188" y="1020" as="targetPoint" />
            <Array as="points">
              <mxPoint x="1103" y="990" />
              <mxPoint x="1240" y="990" />
            </Array>
          </mxGeometry>
        </mxCell>
        <mxCell id="L7xQ6cJun4SARCbxEslF-105" style="edgeStyle=orthogonalEdgeStyle;rounded=0;orthogonalLoop=1;jettySize=auto;html=1;" edge="1" parent="1" source="L7xQ6cJun4SARCbxEslF-95" target="L7xQ6cJun4SARCbxEslF-99">
          <mxGeometry relative="1" as="geometry" />
        </mxCell>
        <mxCell id="L7xQ6cJun4SARCbxEslF-95" value="&lt;span id=&quot;docs-internal-guid-0f4f6c28-7fff-e1f9-5a1d-ff99e56d3980&quot;&gt;&lt;span style=&quot;font-size: 11pt; font-family: Arial, sans-serif; background-color: transparent; font-variant-numeric: normal; font-variant-east-asian: normal; font-variant-alternates: normal; font-variant-position: normal; vertical-align: baseline; white-space-collapse: preserve;&quot;&gt;Admin &lt;br/&gt;menceklis status bayar&lt;/span&gt;&lt;/span&gt;" style="html=1;strokeWidth=2;shape=manualInput;whiteSpace=wrap;rounded=1;size=26;arcSize=11;" vertex="1" parent="1">
          <mxGeometry x="1188.25" y="750" width="160" height="70" as="geometry" />
        </mxCell>
        <mxCell id="L7xQ6cJun4SARCbxEslF-106" style="edgeStyle=orthogonalEdgeStyle;rounded=0;orthogonalLoop=1;jettySize=auto;html=1;" edge="1" parent="1" source="L7xQ6cJun4SARCbxEslF-97" target="L7xQ6cJun4SARCbxEslF-100">
          <mxGeometry relative="1" as="geometry" />
        </mxCell>
        <mxCell id="L7xQ6cJun4SARCbxEslF-97" value="&lt;span id=&quot;docs-internal-guid-0f4f6c28-7fff-e1f9-5a1d-ff99e56d3980&quot;&gt;&lt;span style=&quot;font-size: 11pt; font-family: Arial, sans-serif; background-color: transparent; font-variant-numeric: normal; font-variant-east-asian: normal; font-variant-alternates: normal; font-variant-position: normal; vertical-align: baseline; white-space-collapse: preserve;&quot;&gt;Admin &lt;br&gt;menceklis status pesan&lt;/span&gt;&lt;/span&gt;" style="html=1;strokeWidth=2;shape=manualInput;whiteSpace=wrap;rounded=1;size=26;arcSize=11;" vertex="1" parent="1">
          <mxGeometry x="1188.25" y="835" width="160" height="70" as="geometry" />
        </mxCell>
        <mxCell id="L7xQ6cJun4SARCbxEslF-107" style="edgeStyle=orthogonalEdgeStyle;rounded=0;orthogonalLoop=1;jettySize=auto;html=1;" edge="1" parent="1" source="L7xQ6cJun4SARCbxEslF-99" target="L7xQ6cJun4SARCbxEslF-77">
          <mxGeometry relative="1" as="geometry">
            <Array as="points">
              <mxPoint x="1600" y="785" />
              <mxPoint x="1600" y="990" />
              <mxPoint x="1241" y="990" />
            </Array>
          </mxGeometry>
        </mxCell>
        <mxCell id="L7xQ6cJun4SARCbxEslF-99" value="Data Customer &lt;br&gt;masuk Waiting List" style="shape=parallelogram;html=1;strokeWidth=2;perimeter=parallelogramPerimeter;whiteSpace=wrap;rounded=1;arcSize=12;size=0.23;" vertex="1" parent="1">
          <mxGeometry x="1400" y="755" width="160" height="60" as="geometry" />
        </mxCell>
        <mxCell id="L7xQ6cJun4SARCbxEslF-109" style="edgeStyle=orthogonalEdgeStyle;rounded=0;orthogonalLoop=1;jettySize=auto;html=1;" edge="1" parent="1" source="L7xQ6cJun4SARCbxEslF-100" target="L7xQ6cJun4SARCbxEslF-77">
          <mxGeometry relative="1" as="geometry">
            <Array as="points">
              <mxPoint x="1600" y="870" />
              <mxPoint x="1600" y="990" />
              <mxPoint x="1241" y="990" />
            </Array>
          </mxGeometry>
        </mxCell>
        <mxCell id="L7xQ6cJun4SARCbxEslF-100" value="Data Customer &lt;br&gt;masuk Waiting List" style="shape=parallelogram;html=1;strokeWidth=2;perimeter=parallelogramPerimeter;whiteSpace=wrap;rounded=1;arcSize=12;size=0.23;" vertex="1" parent="1">
          <mxGeometry x="1390" y="840" width="160" height="60" as="geometry" />
        </mxCell>
        <mxCell id="L7xQ6cJun4SARCbxEslF-102" style="edgeStyle=orthogonalEdgeStyle;rounded=0;orthogonalLoop=1;jettySize=auto;html=1;entryX=0.001;entryY=0.582;entryDx=0;entryDy=0;entryPerimeter=0;" edge="1" parent="1" source="L7xQ6cJun4SARCbxEslF-89" target="L7xQ6cJun4SARCbxEslF-95">
          <mxGeometry relative="1" as="geometry" />
        </mxCell>
        <mxCell id="L7xQ6cJun4SARCbxEslF-112" value="" style="edgeStyle=orthogonalEdgeStyle;rounded=0;orthogonalLoop=1;jettySize=auto;html=1;entryX=0.503;entryY=0.193;entryDx=0;entryDy=0;entryPerimeter=0;" edge="1" parent="1" source="L7xQ6cJun4SARCbxEslF-113" target="L7xQ6cJun4SARCbxEslF-115">
          <mxGeometry relative="1" as="geometry">
            <mxPoint x="1935" y="230" as="targetPoint" />
          </mxGeometry>
        </mxCell>
        <mxCell id="L7xQ6cJun4SARCbxEslF-113" value="Admin login ke web/apk&lt;span id=&quot;docs-internal-guid-3d3656c7-7fff-a92a-e64e-077e100d78ac&quot;&gt;&lt;/span&gt;" style="strokeWidth=2;html=1;shape=mxgraph.flowchart.start_1;whiteSpace=wrap;" vertex="1" parent="1">
          <mxGeometry x="1885" y="130" width="100" height="60" as="geometry" />
        </mxCell>
        <mxCell id="L7xQ6cJun4SARCbxEslF-114" value="" style="edgeStyle=orthogonalEdgeStyle;rounded=0;orthogonalLoop=1;jettySize=auto;html=1;" edge="1" parent="1" source="L7xQ6cJun4SARCbxEslF-115" target="L7xQ6cJun4SARCbxEslF-120">
          <mxGeometry relative="1" as="geometry" />
        </mxCell>
        <mxCell id="L7xQ6cJun4SARCbxEslF-115" value="&lt;br&gt;&lt;font style=&quot;font-size: 12px;&quot;&gt;&lt;b id=&quot;docs-internal-guid-653f18cb-7fff-7000-c7e7-d7b133f77b00&quot; style=&quot;font-weight:normal;&quot;&gt;&lt;span style=&quot;font-family: Arial, sans-serif; color: rgb(0, 0, 0); background-color: transparent; font-weight: 400; font-style: normal; font-variant: normal; text-decoration: none; vertical-align: baseline;&quot;&gt;Mengisi username dan password&lt;/span&gt;&lt;/b&gt;&lt;br&gt;&lt;/font&gt;" style="html=1;strokeWidth=2;shape=manualInput;whiteSpace=wrap;rounded=1;size=26;arcSize=11;" vertex="1" parent="1">
          <mxGeometry x="1851.5" y="210" width="167" height="73" as="geometry" />
        </mxCell>
        <mxCell id="L7xQ6cJun4SARCbxEslF-117" value="" style="edgeStyle=orthogonalEdgeStyle;rounded=0;orthogonalLoop=1;jettySize=auto;html=1;entryX=0.5;entryY=0;entryDx=0;entryDy=0;entryPerimeter=0;" edge="1" parent="1" source="L7xQ6cJun4SARCbxEslF-120" target="L7xQ6cJun4SARCbxEslF-121">
          <mxGeometry relative="1" as="geometry">
            <mxPoint x="1935" y="460" as="targetPoint" />
          </mxGeometry>
        </mxCell>
        <mxCell id="L7xQ6cJun4SARCbxEslF-118" value="" style="edgeStyle=orthogonalEdgeStyle;rounded=0;orthogonalLoop=1;jettySize=auto;html=1;entryX=0;entryY=0.5;entryDx=0;entryDy=0;" edge="1" parent="1" target="L7xQ6cJun4SARCbxEslF-123">
          <mxGeometry relative="1" as="geometry">
            <mxPoint x="1980" y="350" as="sourcePoint" />
            <Array as="points">
              <mxPoint x="2040" y="350" />
              <mxPoint x="2040" y="160" />
            </Array>
          </mxGeometry>
        </mxCell>
        <mxCell id="L7xQ6cJun4SARCbxEslF-119" value="" style="edgeStyle=orthogonalEdgeStyle;rounded=0;orthogonalLoop=1;jettySize=auto;html=1;" edge="1" parent="1" target="L7xQ6cJun4SARCbxEslF-145">
          <mxGeometry relative="1" as="geometry">
            <mxPoint x="1910" y="350" as="sourcePoint" />
          </mxGeometry>
        </mxCell>
        <mxCell id="L7xQ6cJun4SARCbxEslF-120" value="&lt;br&gt;&lt;font style=&quot;font-size: 12px;&quot;&gt;&lt;b id=&quot;docs-internal-guid-fa70505c-7fff-1b58-5c84-57bfcc761abd&quot; style=&quot;font-weight:normal;&quot;&gt;&lt;span style=&quot;font-family: Arial, sans-serif; color: rgb(0, 0, 0); background-color: transparent; font-weight: 400; font-style: normal; font-variant: normal; text-decoration: none; vertical-align: baseline;&quot;&gt;Tampilan halaman utama&lt;/span&gt;&lt;/b&gt;&lt;br&gt;&lt;/font&gt;" style="whiteSpace=wrap;html=1;strokeWidth=2;rounded=1;arcSize=11;" vertex="1" parent="1">
          <mxGeometry x="1875" y="320" width="120" height="60" as="geometry" />
        </mxCell>
        <mxCell id="L7xQ6cJun4SARCbxEslF-121" value="Selesai" style="strokeWidth=2;html=1;shape=mxgraph.flowchart.start_1;whiteSpace=wrap;" vertex="1" parent="1">
          <mxGeometry x="1885" y="690" width="100" height="60" as="geometry" />
        </mxCell>
        <mxCell id="L7xQ6cJun4SARCbxEslF-122" value="" style="edgeStyle=orthogonalEdgeStyle;rounded=0;orthogonalLoop=1;jettySize=auto;html=1;" edge="1" parent="1" source="L7xQ6cJun4SARCbxEslF-123" target="L7xQ6cJun4SARCbxEslF-126">
          <mxGeometry relative="1" as="geometry" />
        </mxCell>
        <mxCell id="L7xQ6cJun4SARCbxEslF-123" value="&lt;br&gt;&lt;font style=&quot;font-size: 12px;&quot;&gt;&lt;b id=&quot;docs-internal-guid-42fca0cc-7fff-c6d9-f93f-3b9e373087fc&quot; style=&quot;font-weight:normal;&quot;&gt;&lt;span style=&quot;font-family: Arial, sans-serif; color: rgb(0, 0, 0); background-color: transparent; font-weight: 400; font-style: normal; font-variant: normal; text-decoration: none; vertical-align: baseline;&quot;&gt;Memilih ikon menu&lt;/span&gt;&lt;/b&gt;&lt;br&gt;&lt;/font&gt;" style="whiteSpace=wrap;html=1;strokeWidth=2;rounded=1;arcSize=11;" vertex="1" parent="1">
          <mxGeometry x="2070" y="130" width="120" height="60" as="geometry" />
        </mxCell>
        <mxCell id="L7xQ6cJun4SARCbxEslF-124" value="" style="edgeStyle=orthogonalEdgeStyle;rounded=0;orthogonalLoop=1;jettySize=auto;html=1;" edge="1" parent="1" source="L7xQ6cJun4SARCbxEslF-126" target="L7xQ6cJun4SARCbxEslF-128">
          <mxGeometry relative="1" as="geometry" />
        </mxCell>
        <mxCell id="L7xQ6cJun4SARCbxEslF-125" value="" style="edgeStyle=orthogonalEdgeStyle;rounded=0;orthogonalLoop=1;jettySize=auto;html=1;" edge="1" parent="1" target="L7xQ6cJun4SARCbxEslF-134">
          <mxGeometry relative="1" as="geometry">
            <mxPoint x="2160" y="260" as="sourcePoint" />
          </mxGeometry>
        </mxCell>
        <mxCell id="L7xQ6cJun4SARCbxEslF-126" value="&lt;span style=&quot;background-color: transparent; font-family: Arial, sans-serif;&quot;&gt;Tampilkan item-item menu&lt;/span&gt;&lt;br&gt;&lt;br&gt;" style="whiteSpace=wrap;html=1;strokeWidth=2;rounded=1;arcSize=11;" vertex="1" parent="1">
          <mxGeometry x="2070" y="230" width="120" height="60" as="geometry" />
        </mxCell>
        <mxCell id="L7xQ6cJun4SARCbxEslF-127" value="" style="edgeStyle=orthogonalEdgeStyle;rounded=0;orthogonalLoop=1;jettySize=auto;html=1;" edge="1" parent="1" source="L7xQ6cJun4SARCbxEslF-128" target="L7xQ6cJun4SARCbxEslF-130">
          <mxGeometry relative="1" as="geometry" />
        </mxCell>
        <mxCell id="L7xQ6cJun4SARCbxEslF-128" value="&lt;br&gt;&lt;font style=&quot;font-size: 12px;&quot;&gt;&lt;b id=&quot;docs-internal-guid-2d94652b-7fff-539d-02ea-b277cda0fc78&quot; style=&quot;font-weight:normal;&quot;&gt;&lt;span style=&quot;font-family: Arial, sans-serif; color: rgb(0, 0, 0); background-color: transparent; font-weight: 400; font-style: normal; font-variant: normal; text-decoration: none; vertical-align: baseline;&quot;&gt;Admin klik tambahkan menu&lt;/span&gt;&lt;/b&gt;&lt;br&gt;&lt;/font&gt;" style="whiteSpace=wrap;html=1;strokeWidth=2;rounded=1;arcSize=11;" vertex="1" parent="1">
          <mxGeometry x="2060" y="320" width="140" height="60" as="geometry" />
        </mxCell>
        <mxCell id="L7xQ6cJun4SARCbxEslF-129" value="" style="edgeStyle=orthogonalEdgeStyle;rounded=0;orthogonalLoop=1;jettySize=auto;html=1;" edge="1" parent="1" source="L7xQ6cJun4SARCbxEslF-130" target="L7xQ6cJun4SARCbxEslF-131">
          <mxGeometry relative="1" as="geometry" />
        </mxCell>
        <mxCell id="L7xQ6cJun4SARCbxEslF-130" value="&lt;font style=&quot;font-size: 12px;&quot;&gt;&lt;b id=&quot;docs-internal-guid-0eee615d-7fff-1f35-464d-883b6ac80bba&quot; style=&quot;font-weight:normal;&quot;&gt;&lt;span style=&quot;font-family: Arial, sans-serif; color: rgb(0, 0, 0); background-color: transparent; font-weight: 400; font-style: normal; font-variant: normal; text-decoration: none; vertical-align: baseline;&quot;&gt;Tampilan form menu&lt;/span&gt;&lt;/b&gt;&lt;br&gt;&lt;/font&gt;" style="rounded=1;whiteSpace=wrap;html=1;shape=parallelogram;strokeWidth=2;perimeter=parallelogramPerimeter;arcSize=12;size=0.23;" vertex="1" parent="1">
          <mxGeometry x="2040" y="410" width="180" height="60" as="geometry" />
        </mxCell>
        <mxCell id="L7xQ6cJun4SARCbxEslF-131" value="&lt;br&gt;&lt;font style=&quot;font-size: 12px;&quot;&gt;&lt;b id=&quot;docs-internal-guid-ab08b621-7fff-56af-6a91-f456c4ff377f&quot; style=&quot;font-weight:normal;&quot;&gt;&lt;span style=&quot;font-family: Arial, sans-serif; color: rgb(0, 0, 0); background-color: transparent; font-weight: 400; font-style: normal; font-variant: normal; text-decoration: none; vertical-align: baseline;&quot;&gt;Mengisi form menu &lt;/span&gt;&lt;/b&gt;&lt;br&gt;&lt;/font&gt;" style="verticalLabelPosition=middle;verticalAlign=middle;html=1;shape=trapezoid;perimeter=trapezoidPerimeter;whiteSpace=wrap;size=0.23;arcSize=10;flipV=1;labelPosition=center;align=center;" vertex="1" parent="1">
          <mxGeometry x="2050" y="500" width="160" height="60" as="geometry" />
        </mxCell>
        <mxCell id="L7xQ6cJun4SARCbxEslF-132" value="" style="endArrow=classic;html=1;rounded=0;exitX=0.5;exitY=1;exitDx=0;exitDy=0;entryX=1;entryY=0.5;entryDx=0;entryDy=0;entryPerimeter=0;" edge="1" parent="1" source="L7xQ6cJun4SARCbxEslF-131">
          <mxGeometry width="50" height="50" relative="1" as="geometry">
            <mxPoint x="1900" y="500" as="sourcePoint" />
            <mxPoint x="1970" y="720" as="targetPoint" />
            <Array as="points">
              <mxPoint x="2130" y="720" />
              <mxPoint x="2010" y="720" />
            </Array>
          </mxGeometry>
        </mxCell>
        <mxCell id="L7xQ6cJun4SARCbxEslF-133" value="" style="edgeStyle=orthogonalEdgeStyle;rounded=0;orthogonalLoop=1;jettySize=auto;html=1;" edge="1" parent="1" source="L7xQ6cJun4SARCbxEslF-134" target="L7xQ6cJun4SARCbxEslF-136">
          <mxGeometry relative="1" as="geometry" />
        </mxCell>
        <mxCell id="L7xQ6cJun4SARCbxEslF-134" value="&lt;font style=&quot;font-size: 12px;&quot;&gt;&lt;span style=&quot;background-color: transparent; font-family: Arial, sans-serif;&quot;&gt;Klik ikon Edit&lt;/span&gt;&lt;br&gt;&lt;/font&gt;" style="whiteSpace=wrap;html=1;strokeWidth=2;rounded=1;arcSize=11;" vertex="1" parent="1">
          <mxGeometry x="2273" y="230" width="120" height="60" as="geometry" />
        </mxCell>
        <mxCell id="L7xQ6cJun4SARCbxEslF-135" value="" style="edgeStyle=orthogonalEdgeStyle;rounded=0;orthogonalLoop=1;jettySize=auto;html=1;entryX=0.501;entryY=0.179;entryDx=0;entryDy=0;entryPerimeter=0;" edge="1" parent="1" source="L7xQ6cJun4SARCbxEslF-136" target="L7xQ6cJun4SARCbxEslF-141">
          <mxGeometry relative="1" as="geometry" />
        </mxCell>
        <mxCell id="L7xQ6cJun4SARCbxEslF-136" value="&lt;font style=&quot;font-size: 12px;&quot;&gt;&lt;span style=&quot;background-color: transparent; font-family: Arial, sans-serif;&quot;&gt;Menampilkan halaman form menu &lt;br&gt;yang sudah diisi sebelumnya&lt;/span&gt;&lt;br&gt;&lt;/font&gt;" style="shape=parallelogram;perimeter=parallelogramPerimeter;whiteSpace=wrap;html=1;fixedSize=1;strokeWidth=2;rounded=1;arcSize=11;" vertex="1" parent="1">
          <mxGeometry x="2215" y="330" width="236" height="50" as="geometry" />
        </mxCell>
        <mxCell id="L7xQ6cJun4SARCbxEslF-137" value="" style="edgeStyle=orthogonalEdgeStyle;rounded=0;orthogonalLoop=1;jettySize=auto;html=1;" edge="1" parent="1" target="L7xQ6cJun4SARCbxEslF-139">
          <mxGeometry relative="1" as="geometry">
            <mxPoint x="2323" y="545" as="sourcePoint" />
          </mxGeometry>
        </mxCell>
        <mxCell id="L7xQ6cJun4SARCbxEslF-138" value="" style="edgeStyle=orthogonalEdgeStyle;rounded=0;orthogonalLoop=1;jettySize=auto;html=1;" edge="1" parent="1" source="L7xQ6cJun4SARCbxEslF-139" target="L7xQ6cJun4SARCbxEslF-142">
          <mxGeometry relative="1" as="geometry" />
        </mxCell>
        <mxCell id="L7xQ6cJun4SARCbxEslF-139" value="&lt;font style=&quot;font-size: 12px;&quot;&gt;&lt;span style=&quot;background-color: transparent; font-family: Arial, sans-serif;&quot;&gt;Admin klik ikon update menu&lt;/span&gt;&lt;/font&gt;" style="rounded=1;whiteSpace=wrap;html=1;arcSize=10;" vertex="1" parent="1">
          <mxGeometry x="2273" y="540" width="120" height="60" as="geometry" />
        </mxCell>
        <mxCell id="L7xQ6cJun4SARCbxEslF-140" value="" style="edgeStyle=orthogonalEdgeStyle;rounded=0;orthogonalLoop=1;jettySize=auto;html=1;" edge="1" parent="1" source="L7xQ6cJun4SARCbxEslF-141" target="L7xQ6cJun4SARCbxEslF-139">
          <mxGeometry relative="1" as="geometry" />
        </mxCell>
        <mxCell id="L7xQ6cJun4SARCbxEslF-141" value="&lt;br&gt;&lt;span style=&quot;color: rgb(0, 0, 0); font-family: Arial, sans-serif; font-size: 12px; font-style: normal; font-variant-ligatures: normal; font-variant-caps: normal; font-weight: 400; letter-spacing: normal; orphans: 2; text-align: center; text-indent: 0px; text-transform: none; widows: 2; word-spacing: 0px; -webkit-text-stroke-width: 0px; background-color: rgb(251, 251, 251); text-decoration-thickness: initial; text-decoration-style: initial; text-decoration-color: initial; float: none; display: inline !important;&quot;&gt;Admin mengedit /&amp;nbsp;&lt;/span&gt;&lt;span style=&quot;color: rgb(0, 0, 0); font-family: Arial, sans-serif; font-size: 12px; font-style: normal; font-variant-ligatures: normal; font-variant-caps: normal; font-weight: 400; letter-spacing: normal; orphans: 2; text-align: center; text-indent: 0px; text-transform: none; widows: 2; word-spacing: 0px; -webkit-text-stroke-width: 0px; background-color: rgb(251, 251, 251); text-decoration-thickness: initial; text-decoration-style: initial; text-decoration-color: initial; float: none; display: inline !important;&quot;&gt;mengubah isi&amp;nbsp;&lt;/span&gt;&lt;span style=&quot;color: rgb(0, 0, 0); font-family: Arial, sans-serif; font-size: 12px; font-style: normal; font-variant-ligatures: normal; font-variant-caps: normal; font-weight: 400; letter-spacing: normal; orphans: 2; text-align: center; text-indent: 0px; text-transform: none; widows: 2; word-spacing: 0px; -webkit-text-stroke-width: 0px; background-color: rgb(251, 251, 251); text-decoration-thickness: initial; text-decoration-style: initial; text-decoration-color: initial; float: none; display: inline !important;&quot;&gt;menu form&lt;/span&gt;&lt;br&gt;" style="html=1;strokeWidth=2;shape=manualInput;whiteSpace=wrap;rounded=1;size=26;arcSize=11;" vertex="1" parent="1">
          <mxGeometry x="2243" y="405" width="180" height="90" as="geometry" />
        </mxCell>
        <mxCell id="L7xQ6cJun4SARCbxEslF-142" value="&lt;font style=&quot;font-size: 12px;&quot;&gt;&lt;span style=&quot;background-color: transparent; font-family: Arial, sans-serif;&quot;&gt;Konfirmasi update menu&lt;/span&gt;&lt;br&gt;&lt;/font&gt;" style="shape=parallelogram;perimeter=parallelogramPerimeter;whiteSpace=wrap;html=1;fixedSize=1;rounded=1;arcSize=10;" vertex="1" parent="1">
          <mxGeometry x="2251" y="640" width="164" height="60" as="geometry" />
        </mxCell>
        <mxCell id="L7xQ6cJun4SARCbxEslF-143" value="" style="endArrow=classic;html=1;rounded=0;exitX=0.5;exitY=1;exitDx=0;exitDy=0;entryX=0.5;entryY=1;entryDx=0;entryDy=0;entryPerimeter=0;" edge="1" parent="1" source="L7xQ6cJun4SARCbxEslF-142" target="L7xQ6cJun4SARCbxEslF-121">
          <mxGeometry width="50" height="50" relative="1" as="geometry">
            <mxPoint x="2235" y="520" as="sourcePoint" />
            <mxPoint x="2285" y="470" as="targetPoint" />
            <Array as="points">
              <mxPoint x="2333" y="780" />
              <mxPoint x="1935" y="780" />
            </Array>
          </mxGeometry>
        </mxCell>
        <mxCell id="L7xQ6cJun4SARCbxEslF-144" value="" style="edgeStyle=orthogonalEdgeStyle;rounded=0;orthogonalLoop=1;jettySize=auto;html=1;" edge="1" parent="1" source="L7xQ6cJun4SARCbxEslF-145" target="L7xQ6cJun4SARCbxEslF-147">
          <mxGeometry relative="1" as="geometry" />
        </mxCell>
        <mxCell id="L7xQ6cJun4SARCbxEslF-145" value="&lt;font style=&quot;font-size: 12px;&quot;&gt;&lt;b id=&quot;docs-internal-guid-f787bbf6-7fff-93a8-974d-fc59cb4b3e52&quot; style=&quot;font-weight:normal;&quot;&gt;&lt;span style=&quot;font-family: Arial, sans-serif; color: rgb(0, 0, 0); background-color: transparent; font-weight: 400; font-style: normal; font-variant: normal; text-decoration: none; vertical-align: baseline;&quot;&gt;Masuk ikon pembukuan&lt;/span&gt;&lt;/b&gt;&lt;br&gt;&lt;/font&gt;" style="whiteSpace=wrap;html=1;strokeWidth=2;rounded=1;arcSize=11;" vertex="1" parent="1">
          <mxGeometry x="1710" y="320" width="120" height="60" as="geometry" />
        </mxCell>
        <mxCell id="L7xQ6cJun4SARCbxEslF-146" value="" style="edgeStyle=orthogonalEdgeStyle;rounded=0;orthogonalLoop=1;jettySize=auto;html=1;" edge="1" parent="1" source="L7xQ6cJun4SARCbxEslF-147" target="L7xQ6cJun4SARCbxEslF-148">
          <mxGeometry relative="1" as="geometry" />
        </mxCell>
        <mxCell id="L7xQ6cJun4SARCbxEslF-147" value="&lt;font style=&quot;font-size: 12px;&quot;&gt;&lt;b id=&quot;docs-internal-guid-86dab895-7fff-0e52-3d59-d95f6bcd6be0&quot; style=&quot;font-weight:normal;&quot;&gt;&lt;span style=&quot;font-family: Arial, sans-serif; color: rgb(0, 0, 0); background-color: transparent; font-weight: 400; font-style: normal; font-variant: normal; text-decoration: none; vertical-align: baseline;&quot;&gt;Menampilkan daftar ringkasan pesanan selesai&lt;/span&gt;&lt;/b&gt;&lt;br&gt;&lt;/font&gt;" style="shape=parallelogram;perimeter=parallelogramPerimeter;whiteSpace=wrap;html=1;fixedSize=1;strokeWidth=2;rounded=1;arcSize=11;" vertex="1" parent="1">
          <mxGeometry x="1670" y="415" width="200" height="80" as="geometry" />
        </mxCell>
        <mxCell id="L7xQ6cJun4SARCbxEslF-150" style="edgeStyle=orthogonalEdgeStyle;rounded=0;orthogonalLoop=1;jettySize=auto;html=1;" edge="1" parent="1" source="L7xQ6cJun4SARCbxEslF-148" target="L7xQ6cJun4SARCbxEslF-121">
          <mxGeometry relative="1" as="geometry">
            <Array as="points">
              <mxPoint x="1770" y="720" />
            </Array>
          </mxGeometry>
        </mxCell>
        <mxCell id="L7xQ6cJun4SARCbxEslF-148" value="&lt;br&gt;&lt;font style=&quot;font-size: 12px;&quot;&gt;&lt;b id=&quot;docs-internal-guid-fa0651fa-7fff-dac9-2362-a467e3cbb451&quot; style=&quot;font-weight:normal;&quot;&gt;&lt;span style=&quot;font-family: Arial, sans-serif; color: rgb(0, 0, 0); background-color: transparent; font-weight: 400; font-style: normal; font-variant: normal; text-decoration: none; vertical-align: baseline;&quot;&gt;Menampilkan pilihan sortir berdasarkan harian, mingguan, bulanan, dan tahunan&lt;/span&gt;&lt;/b&gt;&lt;br&gt;&lt;/font&gt;" style="shape=parallelogram;perimeter=parallelogramPerimeter;whiteSpace=wrap;html=1;fixedSize=1;strokeWidth=2;rounded=1;arcSize=11;" vertex="1" parent="1">
          <mxGeometry x="1670" y="534.5" width="200" height="90" as="geometry" />
        </mxCell>
        <mxCell id="L7xQ6cJun4SARCbxEslF-151" value="&lt;span id=&quot;docs-internal-guid-f5fb7e0e-7fff-c234-bfba-7c07ae8280fd&quot;&gt;&lt;span style=&quot;font-family: Arial, sans-serif; background-color: transparent; font-weight: 700; font-variant-numeric: normal; font-variant-east-asian: normal; font-variant-alternates: normal; font-variant-position: normal; vertical-align: baseline; white-space-collapse: preserve;&quot;&gt;&lt;font style=&quot;font-size: 30px;&quot;&gt;ADMIN / True (Owner)&lt;/font&gt;&lt;/span&gt;&lt;/span&gt;" style="text;html=1;strokeColor=none;fillColor=none;align=center;verticalAlign=middle;whiteSpace=wrap;rounded=0;" vertex="1" parent="1">
          <mxGeometry x="1841" y="50" width="379" height="40" as="geometry" />
        </mxCell>
      </root>
    </mxGraphModel>
  </diagram>
</mxfile>
